<svg version="1.1" viewBox="0.0 0.0 242.64566929133858 102.39107611548556" fill="none" stroke="none" stroke-linecap="square" stroke-miterlimit="10" xmlns:xlink="http://www.w3.org/1999/xlink" xmlns="http://www.w3.org/2000/svg"><clipPath id="p.0"><path d="m0 0l242.64568 0l0 102.391075l-242.64568 0l0 -102.391075z" clip-rule="nonzero"/></clipPath><g clip-path="url(#p.0)"><path fill="#000000" fill-opacity="0.0" d="m0 0l242.64568 0l0 102.391075l-242.64568 0z" fill-rule="evenodd"/><path fill="#000000" fill-opacity="0.0" d="m-4.406824 -34.84777l267.90552 0l0 146.83466l-267.90552 0z" fill-rule="evenodd"/><path fill="#fce5cd" d="m62.343174 66.469734l0 -60.4375l-12.3125 0l-40.75 63.0625l0 6.8125l41.5 0l0 21.125l11.5625 0l0 -21.125l12.687504 0l0 -9.4375l-12.687504 0zm-40.25 0l26.812498 -41.5625l1.875 -3.5l0 45.0625l-28.687498 0zm127.31249 -4.25l0 -21.3125q0 -8.6875 -2.0 -15.406248q-2.0 -6.71875 -5.75 -11.34375q-3.8125 -4.625 -9.28125 -7.0312505q-5.4687424 -2.40625 -12.468742 -2.40625q-6.9375 0 -12.40625 2.40625q-5.46875 2.4062505 -9.21875 7.0312505q-3.8125 4.625 -5.8125 11.34375q-2.0 6.718748 -2.0 15.406248l0 21.3125q0 8.6875 2.0 15.40625q2.0 6.71875 5.8125 11.28125q3.8125 4.6875 9.3125 7.03125q5.5 2.34375 12.4375 2.34375q7.0 0 12.437492 -2.375q5.4375 -2.375 9.1875 -7.0q3.75 -4.5625 5.75 -11.28125q2.0 -6.71875 2.0 -15.40625zm-47.312492 -2.3125q0 -1.625 0 -3.1875q0 -1.5625 0 -3.125l0 -15.25q0 -6.374998 1.28125 -11.218748q1.28125 -4.84375 3.90625 -7.90625q2.1875 -2.4375 5.34375 -3.71875q3.15625 -1.28125 7.28125 -1.28125q4.0625 0 7.15625 1.1875q3.0937424 1.1875 5.2187424 3.5625q2.1875 2.3125 3.46875 5.78125q1.28125 3.46875 1.78125 7.968748l-35.437492 27.1875zm35.687492 4.75q0 6.6875 -1.34375 11.625q-1.34375 4.9375 -4.21875 8.0q-2.125 2.25 -5.1874924 3.4375q-3.0625 1.1875 -7.0 1.1875q-3.75 0 -6.75 -1.09375q-3.0 -1.09375 -5.125 -3.21875q-2.3125 -2.25 -3.75 -5.71875q-1.4375 -3.46875 -2.0 -8.03125l35.374992 -27.0625q0 1.75 0 4.40625q0 2.65625 0 3.59375l0 12.875zm78.1875 1.8125l0 -60.4375l-12.3125 0l-40.75 63.0625l0 6.8125l41.5 0l0 21.125l11.5625 0l0 -21.125l12.6875 0l0 -9.4375l-12.6875 0zm-40.25 0l26.8125 -41.5625l1.875 -3.5l0 45.0625l-28.6875 0z" fill-rule="nonzero"/></g></svg>